<svg version="1.2" xmlns="http://www.w3.org/2000/svg" viewBox="0 0 1180 1180" width="800" height="800">
	<title>8487134_3932903-ai</title>
	<style>
		tspan { white-space:pre } 
		.s0 { fill: #f5f5dc } 
		.s1 { fill: #454f6b } 
		.s2 { fill: #004225 } 
		.s3 { fill: #402c49 } 
		.s4 { fill: #ffffff } 
		.t5 { font-size: 11px;fill: #ffffff;font-weight: 900;font-family: "Arial", "Montserrat" } 
		.s6 { fill: #ffb000 } 
		.t7 { font-size: 15px;fill: #ffb000;font-weight: 900;font-family: "Arial", "Montserrat" } 
		.s8 { fill: #f4d071 } 
		.s9 { fill: #f4cf70 } 
		.s10 { fill: #6ca8bf } 
		.s11 { fill: #468097 } 
		.s12 { fill: #eba58e } 
		.s13 { fill: #422c4f } 
		.s14 { fill: #f2c9ad } 
		.s15 { fill: #94c7d3 } 
		.s16 { fill: #6a3649 } 
		.s17 { fill: #8e5a61 } 
	</style>
	<g id="BACKGROUND">
	</g>
	<g id="OBJECT">
		<g id="&lt;Group&gt;">
			<g id="&lt;Group&gt;">
				<path id="&lt;Path&gt;" class="s0" d="m36 640.8c0.2 87 39.9 172.6 102.2 220.3 91.7 70.1 212.2 54.2 316.7 92.5 75.3 27.5 142.1 83.2 219.1 103 81.3 20.9 166.9-0.5 243.5-38.4 101.4-50.1 198.3-140 221.6-265.6 11.6-62.7 3.8-127.8-4.1-191.3-12-97.6-25.4-199.1-73.5-280.1-15.3-25.7-34.7-49.6-59.9-60.4-25.1-10.8-56.6-5.6-73.5 18.7-18.3 26.6-15.5 68-35.9 92.5-18 21.5-48.5 21.8-72.2 9.9-23.7-11.8-42.6-33.3-62.6-52.3-89.8-85.4-210.9-124.3-325.4-104.6-106.8 18.4-194.3 85.5-266.4 176.6-61.3 77.5-129.8 167.9-129.6 279.2z"/>
				<path id="&lt;Path&gt;" class="s0" d="m877.1 278.1c-7.5 9.3-18.3 14.8-29.2 16.8-20.7 3.8-42.9-4.7-56.8-22.3-14-17.6-18.9-44-12-66.4 7-22.3 25.9-39.4 46.7-41.5 19.1-1.9 39 10.4 52.5 25.2 11.3 12.4 12.3 31.5 11.6 48.5-0.6 14.2-4.2 28.9-12.8 39.7z"/>
			</g>
			<g id="&lt;Group&gt;">
				<g id="Phone">
					<g id="&lt;Group&gt;">
						<g id="&lt;Group&gt;">
							<g id="&lt;Group&gt;">
								<path id="&lt;Path&gt;" class="s1" d="m516.8 952.3h-300.6c-16.1 0-29.2-13.1-29.2-29.2v-614.7c0-16.1 13.1-29.2 29.2-29.2h300.6c16.2 0 29.3 13.1 29.3 29.2v614.7c0 16.1-13.1 29.2-29.3 29.2z"/>
								<path id="&lt;Path&gt;" class="s1" d="m187 471.4c-2.9 0-5.3-2.3-5.3-5.3v-65.8c0-3 2.4-5.3 5.3-5.3z"/>
								<path id="&lt;Path&gt;" class="s1" d="m546.1 418c2.9 0 5.3 2.4 5.3 5.3v65.9c0 2.9-2.4 5.3-5.3 5.3z"/>
								<path id="&lt;Path&gt;" class="s1" d="m187 557.1c-2.9 0-5.3-2.3-5.3-5.3v-65.8c0-2.9 2.4-5.3 5.3-5.3z"/>
							</g>
							<path id="&lt;Path&gt;" class="s2" d="m510.8 285h-47.3l-8.8 26.7c-3.9 12.1-15.1 20.2-27.7 20.2h-132.9c-12.6 0-23.9-8.1-27.8-20.2l-8.7-26.7h-47.4c-10.8 0-19.5 8.7-19.5 19.4v614.7c0 10.7 8.7 19.4 19.5 19.4h300.6c10.8 0 19.5-8.7 19.5-19.4v-614.7c0-10.7-8.7-19.4-19.5-19.4z"/>
							<g id="&lt;Group&gt;">
								<path id="&lt;Path&gt;" class="s3" d="m380.8 313.5h-49.1c-2.8 0-5.2-2.4-5.2-5.2 0-2.9 2.4-5.2 5.2-5.2h49.1c2.8 0 5.2 2.3 5.2 5.2 0 2.8-2.4 5.2-5.2 5.2z"/>
								<path id="&lt;Path&gt;" class="s3" d="m406.5 308.3c0 2.8-2.3 5.2-5.2 5.2-2.9 0-5.2-2.4-5.2-5.2 0-2.9 2.3-5.2 5.2-5.2 2.9 0 5.2 2.3 5.2 5.2z"/>
							</g>
						</g>
						<g id="&lt;Group&gt;">
							<path id="&lt;Path&gt;" class="s4" d="m452.5 416.1h-172v-6.6h172z"/>
							<path id="&lt;Path&gt;" class="s4" d="m423.5 427.5h-113.9v-6.6h113.9z"/>
							<text id="MEAL SCHEDULER" style="transform: matrix(2,0,0,2,252.794,400.221)" >
								<tspan x="0" y="0" class="t5">M</tspan><tspan  y="0" class="t5">E</tspan><tspan  y="0" class="t5">A</tspan><tspan  y="0" class="t5">L</tspan><tspan  y="0" class="t5"> </tspan><tspan  y="0" class="t5">S</tspan><tspan  y="0" class="t5">C</tspan><tspan  y="0" class="t5">H</tspan><tspan  y="0" class="t5">E</tspan><tspan  y="0" class="t5">D</tspan><tspan  y="0" class="t5">U</tspan><tspan  y="0" class="t5">L</tspan><tspan  y="0" class="t5">E</tspan><tspan  y="0" class="t5">R
</tspan>
							</text>
						</g>
						<g id="&lt;Group&gt;">
							<g id="&lt;Group&gt;">
								<path id="&lt;Path&gt;" class="s6" d="m253.4 478.5h-23.3c-2.9 0-5.2-2.3-5.2-5.2v-23.3c0-2.9 2.3-5.2 5.2-5.2h23.3c2.9 0 5.2 2.3 5.2 5.2v23.3c0 2.9-2.3 5.2-5.2 5.2z"/>
								<path id="&lt;Path&gt;" class="s4" d="m295 478.5h-23.3c-2.9 0-5.2-2.3-5.2-5.2v-23.3c0-2.9 2.3-5.2 5.2-5.2h23.3c2.9 0 5.2 2.3 5.2 5.2v23.3c0 2.9-2.3 5.2-5.2 5.2z"/>
								<path id="&lt;Path&gt;" class="s4" d="m336.6 478.5h-23.3c-2.9 0-5.2-2.3-5.2-5.2v-23.3c0-2.9 2.3-5.2 5.2-5.2h23.3c2.9 0 5.2 2.3 5.2 5.2v23.3c0 2.9-2.3 5.2-5.2 5.2z"/>
								<path id="&lt;Path&gt;" class="s4" d="m378.2 478.5h-23.3c-2.9 0-5.2-2.3-5.2-5.2v-23.3c0-2.9 2.3-5.2 5.2-5.2h23.3c2.8 0 5.2 2.3 5.2 5.2v23.3c0 2.9-2.4 5.2-5.2 5.2z"/>
								<path id="&lt;Path&gt;" class="s4" d="m419.7 478.5h-23.2c-2.9 0-5.3-2.3-5.3-5.2v-23.3c0-2.9 2.4-5.2 5.3-5.2h23.2c2.9 0 5.3 2.3 5.3 5.2v23.3c0 2.9-2.4 5.2-5.3 5.2z"/>
								<path id="&lt;Path&gt;" class="s4" d="m461.3 478.5h-23.2c-2.9 0-5.3-2.3-5.3-5.2v-23.3c0-2.9 2.4-5.2 5.3-5.2h23.2c2.9 0 5.3 2.3 5.3 5.2v23.3c0 2.9-2.4 5.2-5.3 5.2z"/>
								<path id="&lt;Path&gt;" class="s4" d="m502.9 478.5h-23.3c-2.8 0-5.2-2.3-5.2-5.2v-23.3c0-2.9 2.4-5.2 5.2-5.2h23.3c2.9 0 5.2 2.3 5.2 5.2v23.3c0 2.9-2.3 5.2-5.2 5.2z"/>
							</g>
							<g id="&lt;Group&gt;">
								<path id="&lt;Path&gt;" class="s6" d="m253.4 519.4h-23.3c-2.9 0-5.2-2.3-5.2-5.2v-23.3c0-2.9 2.3-5.2 5.2-5.2h23.3c2.9 0 5.2 2.3 5.2 5.2v23.3c0 2.9-2.3 5.2-5.2 5.2z"/>
								<path id="&lt;Path&gt;" class="s4" d="m295 519.4h-23.3c-2.9 0-5.2-2.3-5.2-5.2v-23.3c0-2.9 2.3-5.2 5.2-5.2h23.3c2.9 0 5.2 2.3 5.2 5.2v23.3c0 2.9-2.3 5.2-5.2 5.2z"/>
								<path id="&lt;Path&gt;" class="s6" d="m336.6 519.4h-23.3c-2.9 0-5.2-2.3-5.2-5.2v-23.3c0-2.9 2.3-5.2 5.2-5.2h23.3c2.9 0 5.2 2.3 5.2 5.2v23.3c0 2.9-2.3 5.2-5.2 5.2z"/>
								<path id="&lt;Path&gt;" class="s4" d="m378.2 519.4h-23.3c-2.9 0-5.2-2.3-5.2-5.2v-23.3c0-2.9 2.3-5.2 5.2-5.2h23.3c2.8 0 5.2 2.3 5.2 5.2v23.3c0 2.9-2.4 5.2-5.2 5.2z"/>
								<path id="&lt;Path&gt;" class="s4" d="m419.7 519.4h-23.2c-2.9 0-5.3-2.3-5.3-5.2v-23.3c0-2.9 2.4-5.2 5.3-5.2h23.2c2.9 0 5.3 2.3 5.3 5.2v23.3c0 2.9-2.4 5.2-5.3 5.2z"/>
								<path id="&lt;Path&gt;" class="s4" d="m461.3 519.4h-23.2c-2.9 0-5.3-2.3-5.3-5.2v-23.3c0-2.9 2.4-5.2 5.3-5.2h23.2c2.9 0 5.3 2.3 5.3 5.2v23.3c0 2.9-2.4 5.2-5.3 5.2z"/>
								<path id="&lt;Path&gt;" class="s4" d="m502.9 519.4h-23.3c-2.8 0-5.2-2.3-5.2-5.2v-23.3c0-2.9 2.4-5.2 5.2-5.2h23.3c2.9 0 5.2 2.3 5.2 5.2v23.3c0 2.9-2.3 5.2-5.2 5.2z"/>
							</g>
							<g id="&lt;Group&gt;">
								<path id="&lt;Path&gt;" class="s6" d="m253.4 560.3h-23.3c-2.9 0-5.2-2.3-5.2-5.2v-23.3c0-2.9 2.3-5.2 5.2-5.2h23.3c2.9 0 5.2 2.3 5.2 5.2v23.3c0 2.9-2.3 5.2-5.2 5.2z"/>
								<path id="&lt;Path&gt;" class="s4" d="m295 560.3h-23.3c-2.9 0-5.2-2.3-5.2-5.2v-23.3c0-2.9 2.3-5.2 5.2-5.2h23.3c2.9 0 5.2 2.3 5.2 5.2v23.3c0 2.9-2.3 5.2-5.2 5.2z"/>
								<path id="&lt;Path&gt;" class="s4" d="m336.6 560.3h-23.3c-2.9 0-5.2-2.3-5.2-5.2v-23.3c0-2.9 2.3-5.2 5.2-5.2h23.3c2.9 0 5.2 2.3 5.2 5.2v23.3c0 2.9-2.3 5.2-5.2 5.2z"/>
								<path id="&lt;Path&gt;" class="s4" d="m378.2 560.3h-23.3c-2.9 0-5.2-2.3-5.2-5.2v-23.3c0-2.9 2.3-5.2 5.2-5.2h23.3c2.8 0 5.2 2.3 5.2 5.2v23.3c0 2.9-2.4 5.2-5.2 5.2z"/>
								<path id="&lt;Path&gt;" class="s6" d="m419.7 560.3h-23.2c-2.9 0-5.3-2.3-5.3-5.2v-23.3c0-2.9 2.4-5.2 5.3-5.2h23.2c2.9 0 5.3 2.3 5.3 5.2v23.3c0 2.9-2.4 5.2-5.3 5.2z"/>
								<path id="&lt;Path&gt;" class="s4" d="m461.3 560.3h-23.2c-2.9 0-5.3-2.3-5.3-5.2v-23.3c0-2.9 2.4-5.2 5.3-5.2h23.2c2.9 0 5.3 2.3 5.3 5.2v23.3c0 2.9-2.4 5.2-5.3 5.2z"/>
								<path id="&lt;Path&gt;" class="s4" d="m502.9 560.3h-23.3c-2.8 0-5.2-2.3-5.2-5.2v-23.3c0-2.9 2.4-5.2 5.2-5.2h23.3c2.9 0 5.2 2.3 5.2 5.2v23.3c0 2.9-2.3 5.2-5.2 5.2z"/>
							</g>
							<g id="&lt;Group&gt;">
								<path id="&lt;Path&gt;" class="s6" d="m253.4 601.2h-23.3c-2.9 0-5.2-2.3-5.2-5.2v-23.3c0-2.9 2.3-5.2 5.2-5.2h23.3c2.9 0 5.2 2.3 5.2 5.2v23.3c0 2.9-2.3 5.2-5.2 5.2z"/>
								<path id="&lt;Path&gt;" class="s4" d="m295 601.2h-23.3c-2.9 0-5.2-2.3-5.2-5.2v-23.3c0-2.9 2.3-5.2 5.2-5.2h23.3c2.9 0 5.2 2.3 5.2 5.2v23.3c0 2.9-2.3 5.2-5.2 5.2z"/>
								<path id="&lt;Path&gt;" class="s4" d="m336.6 601.2h-23.3c-2.9 0-5.2-2.3-5.2-5.2v-23.3c0-2.9 2.3-5.2 5.2-5.2h23.3c2.9 0 5.2 2.3 5.2 5.2v23.3c0 2.9-2.3 5.2-5.2 5.2z"/>
								<path id="&lt;Path&gt;" class="s4" d="m378.2 601.2h-23.3c-2.9 0-5.2-2.3-5.2-5.2v-23.3c0-2.9 2.3-5.2 5.2-5.2h23.3c2.8 0 5.2 2.3 5.2 5.2v23.3c0 2.9-2.4 5.2-5.2 5.2z"/>
								<path id="&lt;Path&gt;" class="s4" d="m419.7 601.2h-23.2c-2.9 0-5.3-2.3-5.3-5.2v-23.3c0-2.9 2.4-5.2 5.3-5.2h23.2c2.9 0 5.3 2.3 5.3 5.2v23.3c0 2.9-2.4 5.2-5.3 5.2z"/>
								<path id="&lt;Path&gt;" class="s4" d="m461.3 601.2h-23.2c-2.9 0-5.3-2.3-5.3-5.2v-23.3c0-2.9 2.4-5.2 5.3-5.2h23.2c2.9 0 5.3 2.3 5.3 5.2v23.3c0 2.9-2.4 5.2-5.3 5.2z"/>
								<path id="&lt;Path&gt;" class="s4" d="m502.9 601.2h-23.3c-2.8 0-5.2-2.3-5.2-5.2v-23.3c0-2.9 2.4-5.2 5.2-5.2h23.3c2.9 0 5.2 2.3 5.2 5.2v23.3c0 2.9-2.3 5.2-5.2 5.2z"/>
							</g>
							<g id="&lt;Group&gt;">
								<path id="&lt;Path&gt;" class="s6" d="m253.4 642.1h-23.3c-2.9 0-5.2-2.3-5.2-5.2v-23.3c0-2.9 2.3-5.2 5.2-5.2h23.3c2.9 0 5.2 2.3 5.2 5.2v23.3c0 2.9-2.3 5.2-5.2 5.2z"/>
								<path id="&lt;Path&gt;" class="s4" d="m295 642.1h-23.3c-2.9 0-5.2-2.3-5.2-5.2v-23.3c0-2.9 2.3-5.2 5.2-5.2h23.3c2.9 0 5.2 2.3 5.2 5.2v23.3c0 2.9-2.3 5.2-5.2 5.2z"/>
								<path id="&lt;Path&gt;" class="s6" d="m336.6 642.1h-23.3c-2.9 0-5.2-2.3-5.2-5.2v-23.3c0-2.9 2.3-5.2 5.2-5.2h23.3c2.9 0 5.2 2.3 5.2 5.2v23.3c0 2.9-2.3 5.2-5.2 5.2z"/>
								<path id="&lt;Path&gt;" class="s4" d="m378.2 642.1h-23.3c-2.9 0-5.2-2.3-5.2-5.2v-23.3c0-2.9 2.3-5.2 5.2-5.2h23.3c2.8 0 5.2 2.3 5.2 5.2v23.3c0 2.9-2.4 5.2-5.2 5.2z"/>
								<path id="&lt;Path&gt;" class="s4" d="m419.7 642.1h-23.2c-2.9 0-5.3-2.3-5.3-5.2v-23.3c0-2.9 2.4-5.2 5.3-5.2h23.2c2.9 0 5.3 2.3 5.3 5.2v23.3c0 2.9-2.4 5.2-5.3 5.2z"/>
								<path id="&lt;Path&gt;" class="s6" d="m461.3 642.1h-23.2c-2.9 0-5.3-2.3-5.3-5.2v-23.3c0-2.9 2.4-5.2 5.3-5.2h23.2c2.9 0 5.3 2.3 5.3 5.2v23.3c0 2.9-2.4 5.2-5.3 5.2z"/>
								<path id="&lt;Path&gt;" class="s4" d="m502.9 642.1h-23.3c-2.8 0-5.2-2.3-5.2-5.2v-23.3c0-2.9 2.4-5.2 5.2-5.2h23.3c2.9 0 5.2 2.3 5.2 5.2v23.3c0 2.9-2.3 5.2-5.2 5.2z"/>
							</g>
						</g>
						<g id="&lt;Group&gt;">
							<path id="&lt;Path&gt;" class="s4" d="m494.9 734.1h-256.7c-7.4 0-13.3-5.9-13.3-13.2v-41c0-7.4 5.9-13.3 13.3-13.3h256.7c7.3 0 13.2 5.9 13.2 13.3v41c0 7.3-5.9 13.2-13.2 13.2z"/>
							<text id="Your lunch has been delivered." style="transform: matrix(1,0,0,1,238,677)" >
								<tspan x="0" y="10.8" class="t7">Your lunch has been delivered.
</tspan>
							</text>
							<path id="&lt;Path&gt;" class="s4" d="m494.9 816.4h-256.7c-7.4 0-13.3-5.9-13.3-13.2v-41c0-7.4 5.9-13.3 13.3-13.3h256.7c7.3 0 13.2 5.9 13.2 13.3v41c0 7.3-5.9 13.2-13.2 13.2z"/>
							<path id="&lt;Path&gt;" class="s4" d="m494.9 898.8h-256.7c-7.4 0-13.3-6-13.3-13.3v-41c0-7.4 5.9-13.3 13.3-13.3h256.7c7.3 0 13.2 5.9 13.2 13.3v41c0 7.3-5.9 13.3-13.2 13.3z"/>
							<path id="&lt;Path&gt;" class="s8" d="m486.3 704.6h-247v-6.3h247z"/>
							<path id="&lt;Path&gt;" class="s8" d="m370.1 718.5h-130.8v-6.3h130.8z"/>
							<path id="&lt;Path&gt;" class="s8" d="m486.3 772h-247v-6.4h247z"/>
							<path id="&lt;Path&gt;" class="s8" d="m486.3 785.8h-247v-6.3h247z"/>
							<path id="&lt;Path&gt;" class="s8" d="m370.1 799.7h-130.8v-6.3h130.8z"/>
							<path id="&lt;Path&gt;" class="s8" d="m486.3 854.3h-247v-6.3h247z"/>
							<path id="&lt;Path&gt;" class="s8" d="m486.3 868.1h-247v-6.3h247z"/>
							<path id="&lt;Path&gt;" class="s9" d="m309.2 882h-69.9v-6.3h69.9z"/>
						</g>
					</g>
				</g>
				<g id="&lt;Group&gt;">
					<g id="&lt;Group&gt;">
						<path id="&lt;Path&gt;" class="s10" d="m1048.2 918.7l-159.8 48h-103l1.1-155.4-13.4 57.5-73-34.1 44.4-131.6c5-14.8 14.8-27.7 27.7-36.5l41.9-28.4 26.3 1.9 58.4-31 96 38.7z"/>
						<path id="&lt;Path&gt;" class="s11" d="m786.5 811.3l-10-94.1-3.2 22.5c-2.4 16.3-2.8 32.9-1.3 49.3l1.5 15.5c0.6 7.3-0.1 14.7-2.3 21.7l-11.2 36.5 13.1 6.1z"/>
						<path id="&lt;Path&gt;" class="s11" d="m973.7 685.7c-9.2 8.8-18.7 34.6-20.3 43.9l22.8 150.6-106 74.2 18.2 12.3 159.8-48-45-228.5z"/>
						<path id="&lt;Path&gt;" class="s11" d="m840.4 640.1l0.9 7.8c0.9 8.1 3.4 15.9 7.1 23.2l4.8 9.1-5.2 10.2c-3.2 6.3-2.7 13.9 1.5 19.7l3.7 5 16.4 125.1 0.6 126.5-0.4-1.3c-12.8-40.6-14.2-83.9-4.3-125.2l-1.5-3.5c-15.5-37.8-21.2-78.9-16.6-119.5-10.3-8.6-12.2-23.8-4.2-34.7l1.7-2.3c-5.5-10.3-7.4-22.1-5.6-33.6z"/>
					</g>
					<g id="&lt;Group&gt;">
						<path id="&lt;Path&gt;" class="s12" d="m741.3 903.4l21.9-39.3-63.1-29.4z"/>
						<path id="&lt;Path&gt;" class="s13" d="m700.1 834.7l63.1 29.4-10.2 18.3z"/>
					</g>
					<g id="&lt;Group&gt;">
						<path id="&lt;Path&gt;" class="s14" d="m669.1 766.8l24.7 2.2-27.7 109.3c-5 19.8 5.8 40.2 25 47.2 26.3 9.5 54.1-10.5 53.2-38.6l-3.7-125.8c9.6-18.4 13.7-39.2 12-59.9l-0.5-6.4c-0.3-4.1-3-7.6-6.8-9.1l-3.8-1.4c-2.9-1.1-6.2-0.9-8.9 0.7l-18.7 10.4 0.8 1.6c3.8 7.1 12.2 10.6 19.9 8.3l-16.5 15.3z"/>
						<g id="&lt;Group&gt;">
							<path id="&lt;Path&gt;" class="s13" d="m732.7 744.4l-46.2-91c-1.9-3.8-5.8-6.2-10.1-6.2h-47.2c-1.3 0-2.4 0.6-3 1.6l-5.3 7h6.5l44.6 87.8c1.9 3.9 5.9 6.3 10.1 6.3h42.5l2.9 5 5.1-6.8c0.6-1.1 0.7-2.5 0.1-3.7z"/>
							<path id="&lt;Path&gt;" class="s1" d="m724.3 756.7h-47.2c-4.3 0-8.2-2.4-10.2-6.3l-46.1-90.9c-1.3-2.5 0.5-5.5 3.4-5.5h47.1c4.3 0 8.2 2.4 10.2 6.2l46.1 91c1.3 2.5-0.5 5.5-3.3 5.5z"/>
							<path id="&lt;Path&gt;" class="s13" d="m644.7 657.8h-17.5c-1.4 0-2.3 1.5-1.6 2.7l8.9 17.6c0.6 1.3 1.9 2.1 3.4 2.1h17.5c1.4 0 2.3-1.5 1.6-2.7l-8.9-17.6c-0.6-1.3-1.9-2.1-3.4-2.1z"/>
						</g>
						<path id="&lt;Path&gt;" class="s14" d="m643.2 732.9l30.2-20.9c2.7-1.9 6.5-1.1 8.2 1.8l13.6 23.1c1.1 1.7 1.1 4 0.1 5.8l-7.9 13.5c-3.8 6.6-10.7 10.6-18.3 10.6-2.3 0-4.4-1.2-5.7-3.1z"/>
						<path id="&lt;Path&gt;" class="s12" d="m654.2 725.3l-0.9-1.7-10.1 9.3z"/>
						<path id="&lt;Path&gt;" class="s14" d="m632 715.3l21.4-13.4c4-2.5 9.1-1.1 11.3 3 1.7 3.2 1 7.2-1.6 9.6l-19.9 18.4c-1.6 1.4-4.1 1.1-5.2-0.8l-7.2-12.3c-0.9-1.5-0.4-3.6 1.2-4.5z"/>
					</g>
					<g id="&lt;Group&gt;">
						<g id="&lt;Group&gt;">
							<g id="&lt;Group&gt;">
								<path id="&lt;Path&gt;" class="s14" d="m814.1 597.8l5.4 24 20.9 18.3 40.4-49.9-12.3-49.4z"/>
								<path id="&lt;Path&gt;" class="s13" d="m864 567.6c1.2-7.8 1.5-15.7 1.4-23.6l-51.3 53.8 4.7 20.8c9.8-0.8 19.5-5.4 26.7-12.3 10.5-10.1 16.2-24.3 18.5-38.7z"/>
							</g>
							<path id="&lt;Path&gt;" class="s15" d="m840.4 640.1l33.4 35.7 25-66.7-18-18.9z"/>
							<path id="&lt;Path&gt;" class="s15" d="m819.5 621.8l-5.4 16.4 5.4 42 20.9-40.1z"/>
						</g>
						<g id="&lt;Group&gt;">
							<g id="&lt;Group&gt;">
								<path id="&lt;Path&gt;" class="s16" d="m735.2 541.2c-10.1-5.8-17.9-15.5-21.5-26.6-3.6-11.2-2.3-23.9 2.4-34.6-16.2-4.6-29-19.4-31.4-36-2.3-16.7 5.9-34.4 20.2-43.3-0.9 2.6-0.1 6.7 1.5 8.9 1.6 2.2 4 3.7 6.5 4.8 8.6 4 18.8 3.7 28 1.4 9.3-2.4 17.9-6.7 26.7-10.5 8.8-3.8 17.9-7.2 27.4-7.7 16.2-0.7 32.5 7.8 41.1 21.6 10.7-2.5 23.6 1.2 32 8.3 9.2 7.8 13.8 19.8 16.6 31.6 6.3 26.9 5.1 55.6-3.5 81.8-3.4 10.4-18.1 11.7-28.9 13.3-38.4 5.7-83.5 6.6-117.1-13z"/>
								<path id="&lt;Path&gt;" class="s17" d="m701.3 418.3c2.8 5.9 8.8 9.9 15.2 11.4 6.3 1.5 13 0.8 19.4-0.8 11.4-2.8 22-8.2 32.7-13.2 10.7-4.9 21.9-9.4 33.7-10.2 11.7-0.8 26 4.9 33.8 13.7-8.6-13.8-24.9-22.3-41.1-21.6-9.5 0.5-18.6 3.9-27.4 7.7-8.8 3.8-17.4 8.1-26.7 10.5-9.2 2.3-19.4 2.6-28-1.4-2.5-1.1-4.9-2.6-6.5-4.8-1.6-2.2-2.4-6.3-1.5-8.9-5.2 4-6.4 11.7-3.6 17.6z"/>
							</g>
							<g id="&lt;Group&gt;">
								<path id="&lt;Path&gt;" class="s14" d="m849.8 543c-3.7-1.3-6.3-4.5-6.8-8.4l-2.3-16.4c-0.6-4.2-3.1-7.9-6.8-10l-3.3-1.9c-4-2.3-6.5-6.4-6.9-10.9l-2.9-41.1c-28.6 16.4-61.1 25.5-93.9 26.6-5.1 12.5-6.7 26.5-3.5 40.7l8.5 38.8c8.1 36.9 44.6 60.2 81.5 52.1 30.9-6.9 52.3-33.6 53.6-63.8z"/>
								<g id="&lt;Group&gt;">
									<path id="&lt;Path&gt;" class="s16" d="m793.5 500.9c-8.7 0.7-16 5.6-20.4 12.4l42.5-3.8c-5.4-5.9-13.5-9.4-22.1-8.6z"/>
								</g>
								<path id="&lt;Path&gt;" class="s13" d="m791.6 526.2c-2.8 0-5.1 2.2-5.1 5v2.1c0 2.8 2.3 5.1 5.1 5.1 2.8 0 5.1-2.3 5.1-5.1v-2.1c0-2.8-2.3-5-5.1-5z"/>
								<g id="&lt;Group&gt;">
									<path id="&lt;Path&gt;" class="s16" d="m734.4 509.5c-6.2 1.6-10.7 7-12.6 14.1l30.5-7.7c-5.1-5.3-11.6-8-17.9-6.4z"/>
								</g>
								<path id="&lt;Path&gt;" class="s13" d="m740.2 535.5c-2.5 0.3-4.1 2.7-3.7 5.1l0.3 1.8c0.4 2.5 2.7 4.2 5.1 3.8 2.5-0.4 4.2-2.7 3.8-5.2l-0.3-1.8c-0.4-2.5-2.7-4.1-5.2-3.7z"/>
								<path id="&lt;Path&gt;" class="s12" d="m776.1 565.7q-10.3 1.3-20.6 2.7c1.3 4.7 6 8.6 10.8 8.1 4.8-0.4 9.4-6 9.8-10.8z"/>
								<path id="&lt;Path&gt;" class="s4" d="m813.9 570.3c-12.8 6.1-26.1 11.1-39.8 14.9 3.3 5.6 9.2 10.1 15.7 11 6.4 0.8 13.1-1.5 17.7-6.1 4.6-4.6 7.2-13.4 6.4-19.8z"/>
							</g>
							<g id="&lt;Group&gt;">
								<path id="&lt;Path&gt;" class="s14" d="m897.4 532.3c0 13-10.6 23.6-23.6 23.6-13.1 0-23.6-10.6-23.6-23.6 0-13.1 10.5-23.6 23.6-23.6 13 0 23.6 10.5 23.6 23.6z"/>
								<path id="&lt;Path&gt;" class="s12" d="m886.9 532.3c0 7.2-5.9 13.1-13.1 13.1-7.3 0-13.2-5.9-13.2-13.1 0-7.3 5.9-13.2 13.2-13.2 7.2 0 13.1 5.9 13.1 13.2z"/>
							</g>
						</g>
					</g>
					<g id="&lt;Group&gt;">
						<path id="&lt;Path&gt;" class="s10" d="m994.8 647.8c11 3.7 19.7 12.2 23.7 23.2l56 154.5-85.3 37.9-25.6-134.5 1.1-8.4c3.6-26.4 14-51.5 30.1-72.7z"/>
						<g id="&lt;Group&gt;">
							<path id="&lt;Path&gt;" class="s14" d="m998.1 859.5l7.2 24.8-135.1 70.1-63.6-23.3c-3.6-1.4-7.6-0.2-9.9 2.9l-17.8 23.2c-4 5.3-2.9 12.7 2.4 16.6l8.4 6.2c-3.7 7.7-0.7 16.9 6.8 20.9l30.7 16.1c4.7 2.5 10.6 1.7 14.5-2l12.4-11.8 5.8 0.3c10.8 0.4 21.2-3.8 28.6-11.6l163-45.8c25.4-7.2 40.1-33.7 32.7-59l-17.1-58.3z"/>
							<path id="&lt;Path&gt;" class="s12" d="m789.7 980l17.5-30.8-12.3 11.3c-3.1 2.9-4.2 7.5-2.5 11.5z"/>
							<path id="&lt;Path&gt;" class="s13" d="m1067.1 828.8l-69 30.7 5.6 19.2 65.3-43.5z"/>
						</g>
					</g>
				</g>
			</g>
		</g>
	</g>
</svg>